<svg id="Layer_1" data-name="Layer 1" xmlns="http://www.w3.org/2000/svg" xmlns:xlink="http://www.w3.org/1999/xlink" viewBox="0 0 93 266.13"><defs><style>.cls-1,.cls-3,.cls-5{fill:none;}.cls-2{clip-path:url(#clip-path);}.cls-3{stroke:#dad5e2;}.cls-3,.cls-5{stroke-width:2px;}.cls-4{fill:#dad5e2;}.cls-5{stroke:#1c7308;}</style><clipPath id="clip-path" transform="translate(-0.16 -0.28)"><rect class="cls-1" x="0.16" y="0.28" width="93" height="266.13"/></clipPath></defs><title>timeline-list</title><g class="cls-2"><path class="cls-3" d="M23.06,256.18A147.7,147.7,0,0,0,83.63,136.79,147.9,147.9,0,0,0,3.68,5.38" transform="translate(-0.16 -0.28)"/><path class="cls-4" d="M10.79,20.55a9.64,9.64,0,1,0-9.63-9.64,9.64,9.64,0,0,0,9.63,9.64" transform="translate(-0.16 -0.28)"/><circle class="cls-5" cx="10.63" cy="10.63" r="9.63"/><path class="cls-4" d="M56.52,62.12a9.64,9.64,0,1,0-9.63-9.63,9.63,9.63,0,0,0,9.63,9.63" transform="translate(-0.16 -0.28)"/><circle class="cls-5" cx="56.37" cy="52.21" r="9.63"/><path class="cls-4" d="M76.79,106.59A9.64,9.64,0,1,0,67.16,97a9.64,9.64,0,0,0,9.63,9.63" transform="translate(-0.16 -0.28)"/><circle class="cls-5" cx="76.64" cy="96.68" r="9.63"/><path class="cls-4" d="M82.52,161.11a9.64,9.64,0,1,0-9.63-9.63,9.63,9.63,0,0,0,9.63,9.63" transform="translate(-0.16 -0.28)"/><circle class="cls-5" cx="82.37" cy="151.2" r="9.63"/><path class="cls-4" d="M70.89,207.29a9.64,9.64,0,1,0-9.64-9.64,9.64,9.64,0,0,0,9.64,9.64" transform="translate(-0.16 -0.28)"/><circle class="cls-5" cx="70.73" cy="197.37" r="9.63"/><path class="cls-4" d="M27.79,265.41a9.64,9.64,0,1,0-9.63-9.64,9.64,9.64,0,0,0,9.63,9.64" transform="translate(-0.16 -0.28)"/><circle class="cls-5" cx="27.63" cy="255.49" r="9.63"/></g></svg>