<svg id="Layer_1" data-name="Layer 1" xmlns="http://www.w3.org/2000/svg" viewBox="0 0 21.27 359.19"><defs><style>.cls-1,.cls-3{fill:none;}.cls-1{stroke:#e4e1ea;stroke-width:3px;}.cls-2{fill:#d9d4e1;}.cls-3{stroke:#1c7308;stroke-width:2px;}</style></defs><title>m2-1-0_timeline</title><line class="cls-1" x1="9.63" y1="10.63" x2="9.63" y2="348.56"/><path class="cls-2" d="M39,42a9.64,9.64,0,1,0,9.64-9.63A9.64,9.64,0,0,0,39,42" transform="translate(-38 -31.37)"/><circle class="cls-3" cx="48.64" cy="42" r="9.63" transform="translate(-53.55 7.46) rotate(-37.98)"/><path class="cls-2" d="M39,156.43a9.64,9.64,0,1,0,9.64-9.64A9.63,9.63,0,0,0,39,156.43" transform="translate(-38 -31.37)"/><circle class="cls-3" cx="48.64" cy="156.43" r="9.63" transform="translate(-123.97 31.7) rotate(-37.98)"/><path class="cls-2" d="M39,221.6A9.64,9.64,0,1,0,48.64,212,9.63,9.63,0,0,0,39,221.6" transform="translate(-38 -31.37)"/><circle class="cls-3" cx="10.64" cy="190.23" r="9.64"/><path class="cls-2" d="M39,379.92a9.64,9.64,0,1,0,9.64-9.63A9.64,9.64,0,0,0,39,379.92" transform="translate(-38 -31.37)"/><circle class="cls-3" cx="10.64" cy="348.56" r="9.63"/></svg>