<svg id="Layer_1" data-name="Layer 1" xmlns="http://www.w3.org/2000/svg" viewBox="0 0 86.47 267.97"><defs><style>.cls-1,.cls-3{fill:none;stroke-width:2px;}.cls-1{stroke:#dad5e2;}.cls-2{fill:#dad5e2;}.cls-3{stroke:#1c7308;}</style></defs><title>m3-1_timeline-list</title><path class="cls-1" d="M22.44,263.94c36.72-26.92,71-71.18,71-120.2A147.89,147.89,0,0,0,13.5,12.33" transform="translate(-9.98 -7.23)"/><path class="cls-2" d="M20.61,27.5A9.64,9.64,0,1,0,11,17.86a9.64,9.64,0,0,0,9.63,9.64" transform="translate(-9.98 -7.23)"/><circle class="cls-3" cx="20.61" cy="17.86" r="9.63" transform="translate(-7.38 31.12) rotate(-89.58)"/><path class="cls-2" d="M85.81,101.73a9.64,9.64,0,1,0-9.63-9.63,9.64,9.64,0,0,0,9.63,9.63" transform="translate(-9.98 -7.23)"/><circle class="cls-3" cx="75.84" cy="84.87" r="9.63"/><path class="cls-2" d="M85.81,189a9.64,9.64,0,1,0-9.63-9.64A9.64,9.64,0,0,0,85.81,189" transform="translate(-9.98 -7.23)"/><circle class="cls-3" cx="75.84" cy="172.1" r="9.63"/><path class="cls-2" d="M20.61,274.2A9.64,9.64,0,1,0,11,264.57a9.64,9.64,0,0,0,9.63,9.63" transform="translate(-9.98 -7.23)"/><circle class="cls-3" cx="10.63" cy="257.34" r="9.63"/></svg>